<svg viewBox="0 0 349 279" version="1.1" xmlns="http://www.w3.org/2000/svg" xmlns:xlink="http://www.w3.org/1999/xlink" id="el_zuwHpv2ig"><style>@-webkit-keyframes kf_el_OSbob5krXxz_an_wanWSLITB{0%{opacity: 0.3;}50%{opacity: 1;}100%{opacity: 0.3;}}@keyframes kf_el_OSbob5krXxz_an_wanWSLITB{0%{opacity: 0.3;}50%{opacity: 1;}100%{opacity: 0.3;}}@-webkit-keyframes kf_el_fC-c0s6K18_an_K_cVGISyp{0%{-webkit-transform: translate(123px, 65px) translate(-123px, -65px) translate(0px, 15px);transform: translate(123px, 65px) translate(-123px, -65px) translate(0px, 15px);}50%{-webkit-transform: translate(123px, 65px) translate(-123px, -65px) translate(0px, 0px);transform: translate(123px, 65px) translate(-123px, -65px) translate(0px, 0px);}100%{-webkit-transform: translate(123px, 65px) translate(-123px, -65px) translate(0px, 15px);transform: translate(123px, 65px) translate(-123px, -65px) translate(0px, 15px);}}@keyframes kf_el_fC-c0s6K18_an_K_cVGISyp{0%{-webkit-transform: translate(123px, 65px) translate(-123px, -65px) translate(0px, 15px);transform: translate(123px, 65px) translate(-123px, -65px) translate(0px, 15px);}50%{-webkit-transform: translate(123px, 65px) translate(-123px, -65px) translate(0px, 0px);transform: translate(123px, 65px) translate(-123px, -65px) translate(0px, 0px);}100%{-webkit-transform: translate(123px, 65px) translate(-123px, -65px) translate(0px, 15px);transform: translate(123px, 65px) translate(-123px, -65px) translate(0px, 15px);}}@-webkit-keyframes kf_el_fC-c0s6K18_an_UJZKx_EgA{0%{opacity: 0.5223;}50%{opacity: 0.9;}100%{opacity: 0.5223;}}@keyframes kf_el_fC-c0s6K18_an_UJZKx_EgA{0%{opacity: 0.5223;}50%{opacity: 0.9;}100%{opacity: 0.5223;}}@-webkit-keyframes kf_el_9qt0qxnjcNH_an_fB9MnHj9P{0%{-webkit-transform: translate(90px, 72px) scale(1.5, 1) translate(-90px, -72px);transform: translate(90px, 72px) scale(1.5, 1) translate(-90px, -72px);}16.67%{-webkit-transform: translate(90px, 72px) scale(1, 1) translate(-90px, -72px);transform: translate(90px, 72px) scale(1, 1) translate(-90px, -72px);}100%{-webkit-transform: translate(90px, 72px) scale(1, 1) translate(-90px, -72px);transform: translate(90px, 72px) scale(1, 1) translate(-90px, -72px);}}@keyframes kf_el_9qt0qxnjcNH_an_fB9MnHj9P{0%{-webkit-transform: translate(90px, 72px) scale(1.5, 1) translate(-90px, -72px);transform: translate(90px, 72px) scale(1.5, 1) translate(-90px, -72px);}16.67%{-webkit-transform: translate(90px, 72px) scale(1, 1) translate(-90px, -72px);transform: translate(90px, 72px) scale(1, 1) translate(-90px, -72px);}100%{-webkit-transform: translate(90px, 72px) scale(1, 1) translate(-90px, -72px);transform: translate(90px, 72px) scale(1, 1) translate(-90px, -72px);}}@-webkit-keyframes kf_el_1t-8WPKGrjc_an_p13tskBpN{16.67%{-webkit-transform: translate(170px, 29px) scale(1, 1) translate(-170px, -29px);transform: translate(170px, 29px) scale(1, 1) translate(-170px, -29px);}0%{-webkit-transform: translate(170px, 29px) scale(1, 1) translate(-170px, -29px);transform: translate(170px, 29px) scale(1, 1) translate(-170px, -29px);}100%{-webkit-transform: translate(170px, 29px) scale(1, 1) translate(-170px, -29px);transform: translate(170px, 29px) scale(1, 1) translate(-170px, -29px);}}@keyframes kf_el_1t-8WPKGrjc_an_p13tskBpN{16.67%{-webkit-transform: translate(170px, 29px) scale(1, 1) translate(-170px, -29px);transform: translate(170px, 29px) scale(1, 1) translate(-170px, -29px);}0%{-webkit-transform: translate(170px, 29px) scale(1, 1) translate(-170px, -29px);transform: translate(170px, 29px) scale(1, 1) translate(-170px, -29px);}100%{-webkit-transform: translate(170px, 29px) scale(1, 1) translate(-170px, -29px);transform: translate(170px, 29px) scale(1, 1) translate(-170px, -29px);}}@-webkit-keyframes kf_el_qM3p9EG9Swb_an_thzEP7jHp{16.67%{-webkit-transform: translate(251px, 72px) scale(1, 1) translate(-251px, -72px);transform: translate(251px, 72px) scale(1, 1) translate(-251px, -72px);}0%{-webkit-transform: translate(251px, 72px) scale(1, 1) translate(-251px, -72px);transform: translate(251px, 72px) scale(1, 1) translate(-251px, -72px);}100%{-webkit-transform: translate(251px, 72px) scale(1, 1) translate(-251px, -72px);transform: translate(251px, 72px) scale(1, 1) translate(-251px, -72px);}}@keyframes kf_el_qM3p9EG9Swb_an_thzEP7jHp{16.67%{-webkit-transform: translate(251px, 72px) scale(1, 1) translate(-251px, -72px);transform: translate(251px, 72px) scale(1, 1) translate(-251px, -72px);}0%{-webkit-transform: translate(251px, 72px) scale(1, 1) translate(-251px, -72px);transform: translate(251px, 72px) scale(1, 1) translate(-251px, -72px);}100%{-webkit-transform: translate(251px, 72px) scale(1, 1) translate(-251px, -72px);transform: translate(251px, 72px) scale(1, 1) translate(-251px, -72px);}}@-webkit-keyframes kf_el_N2kVk6iTbn7_an_V7-aPp5JY{16.67%{-webkit-transform: translate(171.5px, 171.5px) scale(1, 1) translate(-171.5px, -171.5px);transform: translate(171.5px, 171.5px) scale(1, 1) translate(-171.5px, -171.5px);}0%{-webkit-transform: translate(171.5px, 171.5px) scale(1, 1) translate(-171.5px, -171.5px);transform: translate(171.5px, 171.5px) scale(1, 1) translate(-171.5px, -171.5px);}100%{-webkit-transform: translate(171.5px, 171.5px) scale(1, 1) translate(-171.5px, -171.5px);transform: translate(171.5px, 171.5px) scale(1, 1) translate(-171.5px, -171.5px);}}@keyframes kf_el_N2kVk6iTbn7_an_V7-aPp5JY{16.67%{-webkit-transform: translate(171.5px, 171.5px) scale(1, 1) translate(-171.5px, -171.5px);transform: translate(171.5px, 171.5px) scale(1, 1) translate(-171.5px, -171.5px);}0%{-webkit-transform: translate(171.5px, 171.5px) scale(1, 1) translate(-171.5px, -171.5px);transform: translate(171.5px, 171.5px) scale(1, 1) translate(-171.5px, -171.5px);}100%{-webkit-transform: translate(171.5px, 171.5px) scale(1, 1) translate(-171.5px, -171.5px);transform: translate(171.5px, 171.5px) scale(1, 1) translate(-171.5px, -171.5px);}}@-webkit-keyframes kf_el_29-6Rm9-h14_an_PRhoaUTpG{16.67%{-webkit-transform: translate(170px, 114.20874786376953px) scale(1, 1) translate(-170px, -114.20874786376953px);transform: translate(170px, 114.20874786376953px) scale(1, 1) translate(-170px, -114.20874786376953px);}0%{-webkit-transform: translate(170px, 114.20874786376953px) scale(1, 1) translate(-170px, -114.20874786376953px);transform: translate(170px, 114.20874786376953px) scale(1, 1) translate(-170px, -114.20874786376953px);}100%{-webkit-transform: translate(170px, 114.20874786376953px) scale(1, 1) translate(-170px, -114.20874786376953px);transform: translate(170px, 114.20874786376953px) scale(1, 1) translate(-170px, -114.20874786376953px);}}@keyframes kf_el_29-6Rm9-h14_an_PRhoaUTpG{16.67%{-webkit-transform: translate(170px, 114.20874786376953px) scale(1, 1) translate(-170px, -114.20874786376953px);transform: translate(170px, 114.20874786376953px) scale(1, 1) translate(-170px, -114.20874786376953px);}0%{-webkit-transform: translate(170px, 114.20874786376953px) scale(1, 1) translate(-170px, -114.20874786376953px);transform: translate(170px, 114.20874786376953px) scale(1, 1) translate(-170px, -114.20874786376953px);}100%{-webkit-transform: translate(170px, 114.20874786376953px) scale(1, 1) translate(-170px, -114.20874786376953px);transform: translate(170px, 114.20874786376953px) scale(1, 1) translate(-170px, -114.20874786376953px);}}@-webkit-keyframes kf_el_L2NejKUzGrT_an_dZNrzj4r3{16.67%{-webkit-transform: translate(92px, 72px) scale(1, 1) translate(-92px, -72px);transform: translate(92px, 72px) scale(1, 1) translate(-92px, -72px);}0%{-webkit-transform: translate(92px, 72px) scale(1, 1) translate(-92px, -72px);transform: translate(92px, 72px) scale(1, 1) translate(-92px, -72px);}100%{-webkit-transform: translate(92px, 72px) scale(1, 1) translate(-92px, -72px);transform: translate(92px, 72px) scale(1, 1) translate(-92px, -72px);}}@keyframes kf_el_L2NejKUzGrT_an_dZNrzj4r3{16.67%{-webkit-transform: translate(92px, 72px) scale(1, 1) translate(-92px, -72px);transform: translate(92px, 72px) scale(1, 1) translate(-92px, -72px);}0%{-webkit-transform: translate(92px, 72px) scale(1, 1) translate(-92px, -72px);transform: translate(92px, 72px) scale(1, 1) translate(-92px, -72px);}100%{-webkit-transform: translate(92px, 72px) scale(1, 1) translate(-92px, -72px);transform: translate(92px, 72px) scale(1, 1) translate(-92px, -72px);}}@-webkit-keyframes kf_el_M2PR8wdc6FN_an_f3XUYtL4Q{50%{opacity: 1;}100%{opacity: 0.68;}0%{opacity: 1;}}@keyframes kf_el_M2PR8wdc6FN_an_f3XUYtL4Q{50%{opacity: 1;}100%{opacity: 0.68;}0%{opacity: 1;}}@-webkit-keyframes kf_el_2Iruf8NJ6Bh_an_Da_vr9M66{0%{opacity: 0.3;}16.67%{opacity: 1;}100%{opacity: 0.2;}}@keyframes kf_el_2Iruf8NJ6Bh_an_Da_vr9M66{0%{opacity: 0.3;}16.67%{opacity: 1;}100%{opacity: 0.2;}}@-webkit-keyframes kf_el_YJ5a3WPxjMC_an_CCCt3FuJs{0%{opacity: 0.3;}16.67%{opacity: 1;}100%{opacity: 0.2;}}@keyframes kf_el_YJ5a3WPxjMC_an_CCCt3FuJs{0%{opacity: 0.3;}16.67%{opacity: 1;}100%{opacity: 0.2;}}@-webkit-keyframes kf_el_lFKdPcX-k5r_an_qHMNK3Opu{0%{opacity: 0.3;}16.67%{opacity: 1;}100%{opacity: 0.2;}}@keyframes kf_el_lFKdPcX-k5r_an_qHMNK3Opu{0%{opacity: 0.3;}16.67%{opacity: 1;}100%{opacity: 0.2;}}@-webkit-keyframes kf_el_aKeFgvjHjm7_an_3AAKU_KrE{0%{opacity: 0.3;}16.67%{opacity: 1;}100%{opacity: 0.2;}}@keyframes kf_el_aKeFgvjHjm7_an_3AAKU_KrE{0%{opacity: 0.3;}16.67%{opacity: 1;}100%{opacity: 0.2;}}@-webkit-keyframes kf_el_-7JTgAqBYeu_an_caKZyxJUl{0%{opacity: 0.3;}16.67%{opacity: 1;}100%{opacity: 0.2;}}@keyframes kf_el_-7JTgAqBYeu_an_caKZyxJUl{0%{opacity: 0.3;}16.67%{opacity: 1;}100%{opacity: 0.2;}}@-webkit-keyframes kf_el_toLX3i8CBog_an_A3vEvGySI{0%{opacity: 0.3;}16.67%{opacity: 1;}100%{opacity: 0.2;}}@keyframes kf_el_toLX3i8CBog_an_A3vEvGySI{0%{opacity: 0.3;}16.67%{opacity: 1;}100%{opacity: 0.2;}}@-webkit-keyframes kf_el_-7JTgAqBYeu_an_npt7n6MT9{0%{-webkit-transform: translate(271px, 159.75px) translate(-271px, -159.75px) translate(0px, 100px);transform: translate(271px, 159.75px) translate(-271px, -159.75px) translate(0px, 100px);}100%{-webkit-transform: translate(271px, 159.75px) translate(-271px, -159.75px) translate(0px, -100px);transform: translate(271px, 159.75px) translate(-271px, -159.75px) translate(0px, -100px);}}@keyframes kf_el_-7JTgAqBYeu_an_npt7n6MT9{0%{-webkit-transform: translate(271px, 159.75px) translate(-271px, -159.75px) translate(0px, 100px);transform: translate(271px, 159.75px) translate(-271px, -159.75px) translate(0px, 100px);}100%{-webkit-transform: translate(271px, 159.75px) translate(-271px, -159.75px) translate(0px, -100px);transform: translate(271px, 159.75px) translate(-271px, -159.75px) translate(0px, -100px);}}@-webkit-keyframes kf_el_lFKdPcX-k5r_an_CPqrMhMIA{0%{-webkit-transform: translate(23px, 122.75px) translate(-23px, -122.75px) translate(0px, 100px);transform: translate(23px, 122.75px) translate(-23px, -122.75px) translate(0px, 100px);}100%{-webkit-transform: translate(23px, 122.75px) translate(-23px, -122.75px) translate(0px, -100px);transform: translate(23px, 122.75px) translate(-23px, -122.75px) translate(0px, -100px);}}@keyframes kf_el_lFKdPcX-k5r_an_CPqrMhMIA{0%{-webkit-transform: translate(23px, 122.75px) translate(-23px, -122.75px) translate(0px, 100px);transform: translate(23px, 122.75px) translate(-23px, -122.75px) translate(0px, 100px);}100%{-webkit-transform: translate(23px, 122.75px) translate(-23px, -122.75px) translate(0px, -100px);transform: translate(23px, 122.75px) translate(-23px, -122.75px) translate(0px, -100px);}}@-webkit-keyframes kf_el_aKeFgvjHjm7_an_mHKW3L_bz{0%{-webkit-transform: translate(268px, 55px) translate(-268px, -55px) translate(0px, 100px);transform: translate(268px, 55px) translate(-268px, -55px) translate(0px, 100px);}100%{-webkit-transform: translate(268px, 55px) translate(-268px, -55px) translate(0px, -100px);transform: translate(268px, 55px) translate(-268px, -55px) translate(0px, -100px);}}@keyframes kf_el_aKeFgvjHjm7_an_mHKW3L_bz{0%{-webkit-transform: translate(268px, 55px) translate(-268px, -55px) translate(0px, 100px);transform: translate(268px, 55px) translate(-268px, -55px) translate(0px, 100px);}100%{-webkit-transform: translate(268px, 55px) translate(-268px, -55px) translate(0px, -100px);transform: translate(268px, 55px) translate(-268px, -55px) translate(0px, -100px);}}@-webkit-keyframes kf_el_YJ5a3WPxjMC_an_Si9Gfqgjf{0%{-webkit-transform: translate(268px, 150px) translate(-268px, -150px) translate(0px, 100px);transform: translate(268px, 150px) translate(-268px, -150px) translate(0px, 100px);}100%{-webkit-transform: translate(268px, 150px) translate(-268px, -150px) translate(0px, -100px);transform: translate(268px, 150px) translate(-268px, -150px) translate(0px, -100px);}}@keyframes kf_el_YJ5a3WPxjMC_an_Si9Gfqgjf{0%{-webkit-transform: translate(268px, 150px) translate(-268px, -150px) translate(0px, 100px);transform: translate(268px, 150px) translate(-268px, -150px) translate(0px, 100px);}100%{-webkit-transform: translate(268px, 150px) translate(-268px, -150px) translate(0px, -100px);transform: translate(268px, 150px) translate(-268px, -150px) translate(0px, -100px);}}@-webkit-keyframes kf_el_2Iruf8NJ6Bh_an_vTrBWBuLP{0%{-webkit-transform: translate(20px, 113px) translate(-20px, -113px) translate(0px, 100px);transform: translate(20px, 113px) translate(-20px, -113px) translate(0px, 100px);}100%{-webkit-transform: translate(20px, 113px) translate(-20px, -113px) translate(0px, -100px);transform: translate(20px, 113px) translate(-20px, -113px) translate(0px, -100px);}}@keyframes kf_el_2Iruf8NJ6Bh_an_vTrBWBuLP{0%{-webkit-transform: translate(20px, 113px) translate(-20px, -113px) translate(0px, 100px);transform: translate(20px, 113px) translate(-20px, -113px) translate(0px, 100px);}100%{-webkit-transform: translate(20px, 113px) translate(-20px, -113px) translate(0px, -100px);transform: translate(20px, 113px) translate(-20px, -113px) translate(0px, -100px);}}@-webkit-keyframes kf_el_toLX3i8CBog_an_kZZxKTz1f{0%{-webkit-transform: translate(271px, 64.75px) translate(-271px, -64.75px) translate(0px, 100px);transform: translate(271px, 64.75px) translate(-271px, -64.75px) translate(0px, 100px);}100%{-webkit-transform: translate(271px, 64.75px) translate(-271px, -64.75px) translate(0px, -100px);transform: translate(271px, 64.75px) translate(-271px, -64.75px) translate(0px, -100px);}}@keyframes kf_el_toLX3i8CBog_an_kZZxKTz1f{0%{-webkit-transform: translate(271px, 64.75px) translate(-271px, -64.75px) translate(0px, 100px);transform: translate(271px, 64.75px) translate(-271px, -64.75px) translate(0px, 100px);}100%{-webkit-transform: translate(271px, 64.75px) translate(-271px, -64.75px) translate(0px, -100px);transform: translate(271px, 64.75px) translate(-271px, -64.75px) translate(0px, -100px);}}#el_zuwHpv2ig *{-webkit-animation-duration: 3s;animation-duration: 3s;-webkit-animation-iteration-count: infinite;animation-iteration-count: infinite;-webkit-animation-timing-function: cubic-bezier(0, 0, 1, 1);animation-timing-function: cubic-bezier(0, 0, 1, 1);}#el_rnPiU1q-p6{stroke: none;stroke-width: 1;fill: none;}#el_e__EBhOZzA{-webkit-transform: translate(-886px, -104px);transform: translate(-886px, -104px);}#el_CrusjYre3K{-webkit-transform: translate(887px, 104px);transform: translate(887px, 104px);}#el_eZqyktq3dL{opacity: 0.579729353;}#el_lsuzwFBvsy{fill: black;fill-opacity: 1;}#el_ytEYKrHv8p{stroke: #4291F7;stroke-width: 1;}#el_vFQLJcPocn{opacity: 0.472284226;}#el_NK4Z_SJaVq{fill: black;fill-opacity: 1;}#el_0_pLYx6jjD{stroke: #4291F7;stroke-width: 1;}#el_Ppv8sRxFhg{stroke: #4291F7;opacity: 0.472284226;}#el_fC-c0s6K18{stroke: #FFFFFF;stroke-width: 4;fill: #FFCA43;opacity: 0.5223;-webkit-animation-fill-mode: backwards;animation-fill-mode: backwards;-webkit-animation-name: kf_el_fC-c0s6K18_an_UJZKx_EgA;animation-name: kf_el_fC-c0s6K18_an_UJZKx_EgA;-webkit-animation-timing-function: cubic-bezier(0, 0, 1, 1);animation-timing-function: cubic-bezier(0, 0, 1, 1);}#el_mAFSYT25ao{fill: #09A8EE;opacity: 0.662411644;}#el_ch3DVsRGu7{fill: #45BEFF;opacity: 0.662411644;}#el_lmNZY2j5t-{fill: #0287DA;opacity: 0.662411644;-webkit-transform: translate(421px, 0px) scale(-1, 1);transform: translate(421px, 0px) scale(-1, 1);}#el_BnrXleq-yP{stroke: #2785FF;}#el_vvgpmchjSZG{stroke: #2785FF;}#el_2ERIcFTqhgb{stroke: #2785FF;-webkit-transform: translate(421px, 0px) scale(-1, 1);transform: translate(421px, 0px) scale(-1, 1);}#el_M2PR8wdc6FN{stroke: #4291F7;fill-opacity: 0.532888986;fill: #4291F7;opacity: 1;-webkit-animation-fill-mode: backwards;animation-fill-mode: backwards;-webkit-animation-name: kf_el_M2PR8wdc6FN_an_f3XUYtL4Q;animation-name: kf_el_M2PR8wdc6FN_an_f3XUYtL4Q;-webkit-animation-timing-function: cubic-bezier(0, 0, 1, 1);animation-timing-function: cubic-bezier(0, 0, 1, 1);}#el_GcpIQ91wMhr{fill: #4291F7;}#el_OOZ8E21f8lA{fill: #FFCA43;}#el_VF0F5EmQEtD{fill: #FFCA43;}#el_5bMM-pmdlfd{fill: #FFCA43;}#el_ut8PxMFQHFR{fill: #FFCA43;}#el_ez1mDRP6zpX{fill: #FFCA43;}#el_NvDhlKXjAea{fill: #FFCA43;}#el_NyVFHOcO9_j{stroke: #4291F7;}#el_VG9LSk49Jjg{fill: #FFCA43;}#el_L2NejKUzGrT{stroke: #FFCA43;stroke-width: 2;}#el_29-6Rm9-h14{stroke: #FFCA43;stroke-width: 2;}#el_N2kVk6iTbn7{stroke: #FFCA43;stroke-width: 2;}#el_1t-8WPKGrjc{stroke: #FFCA43;stroke-width: 2;}#el_9qt0qxnjcNH{stroke: #FFCA43;stroke-width: 2;}#el_qM3p9EG9Swb{stroke: #FFCA43;stroke-width: 2;}#el_OSbob5krXxz{fill: url(#linearGradient-7);opacity: 0.3;-webkit-animation-fill-mode: backwards;animation-fill-mode: backwards;-webkit-animation-name: kf_el_OSbob5krXxz_an_wanWSLITB;animation-name: kf_el_OSbob5krXxz_an_wanWSLITB;-webkit-animation-timing-function: cubic-bezier(0, 0, 1, 1);animation-timing-function: cubic-bezier(0, 0, 1, 1);}#el_2Iruf8NJ6Bh{fill: #42CFF7;-webkit-animation-fill-mode: backwards;animation-fill-mode: backwards;opacity: 0.3;-webkit-animation-name: kf_el_2Iruf8NJ6Bh_an_Da_vr9M66;animation-name: kf_el_2Iruf8NJ6Bh_an_Da_vr9M66;-webkit-animation-timing-function: cubic-bezier(0, 0, 1, 1);animation-timing-function: cubic-bezier(0, 0, 1, 1);}#el_YJ5a3WPxjMC{fill: #42CFF7;-webkit-animation-fill-mode: backwards;animation-fill-mode: backwards;opacity: 0.3;-webkit-animation-name: kf_el_YJ5a3WPxjMC_an_CCCt3FuJs;animation-name: kf_el_YJ5a3WPxjMC_an_CCCt3FuJs;-webkit-animation-timing-function: cubic-bezier(0, 0, 1, 1);animation-timing-function: cubic-bezier(0, 0, 1, 1);}#el_aKeFgvjHjm7{fill: #42CFF7;opacity: 0.3;-webkit-animation-fill-mode: backwards;animation-fill-mode: backwards;-webkit-animation-name: kf_el_aKeFgvjHjm7_an_3AAKU_KrE;animation-name: kf_el_aKeFgvjHjm7_an_3AAKU_KrE;-webkit-animation-timing-function: cubic-bezier(0, 0, 1, 1);animation-timing-function: cubic-bezier(0, 0, 1, 1);}#el_lFKdPcX-k5r{fill: url(#linearGradient-8);-webkit-animation-fill-mode: backwards;animation-fill-mode: backwards;opacity: 0.3;-webkit-animation-name: kf_el_lFKdPcX-k5r_an_qHMNK3Opu;animation-name: kf_el_lFKdPcX-k5r_an_qHMNK3Opu;-webkit-animation-timing-function: cubic-bezier(0, 0, 1, 1);animation-timing-function: cubic-bezier(0, 0, 1, 1);}#el_-7JTgAqBYeu{fill: url(#linearGradient-8);-webkit-animation-fill-mode: backwards;animation-fill-mode: backwards;opacity: 0.3;-webkit-animation-name: kf_el_-7JTgAqBYeu_an_caKZyxJUl;animation-name: kf_el_-7JTgAqBYeu_an_caKZyxJUl;-webkit-animation-timing-function: cubic-bezier(0, 0, 1, 1);animation-timing-function: cubic-bezier(0, 0, 1, 1);}#el_toLX3i8CBog{fill: url(#linearGradient-9);-webkit-animation-fill-mode: backwards;animation-fill-mode: backwards;opacity: 0.3;-webkit-animation-name: kf_el_toLX3i8CBog_an_A3vEvGySI;animation-name: kf_el_toLX3i8CBog_an_A3vEvGySI;-webkit-animation-timing-function: cubic-bezier(0, 0, 1, 1);animation-timing-function: cubic-bezier(0, 0, 1, 1);}#el_toLX3i8CBog_an_kZZxKTz1f{-webkit-animation-fill-mode: backwards;animation-fill-mode: backwards;-webkit-transform: translate(271px, 64.75px) translate(-271px, -64.75px) translate(0px, 100px);transform: translate(271px, 64.75px) translate(-271px, -64.75px) translate(0px, 100px);-webkit-animation-name: kf_el_toLX3i8CBog_an_kZZxKTz1f;animation-name: kf_el_toLX3i8CBog_an_kZZxKTz1f;-webkit-animation-timing-function: cubic-bezier(0, 0, 1, 1);animation-timing-function: cubic-bezier(0, 0, 1, 1);}#el_2Iruf8NJ6Bh_an_vTrBWBuLP{-webkit-animation-fill-mode: backwards;animation-fill-mode: backwards;-webkit-transform: translate(20px, 113px) translate(-20px, -113px) translate(0px, 100px);transform: translate(20px, 113px) translate(-20px, -113px) translate(0px, 100px);-webkit-animation-name: kf_el_2Iruf8NJ6Bh_an_vTrBWBuLP;animation-name: kf_el_2Iruf8NJ6Bh_an_vTrBWBuLP;-webkit-animation-timing-function: cubic-bezier(0, 0, 1, 1);animation-timing-function: cubic-bezier(0, 0, 1, 1);}#el_YJ5a3WPxjMC_an_Si9Gfqgjf{-webkit-animation-fill-mode: backwards;animation-fill-mode: backwards;-webkit-transform: translate(268px, 150px) translate(-268px, -150px) translate(0px, 100px);transform: translate(268px, 150px) translate(-268px, -150px) translate(0px, 100px);-webkit-animation-name: kf_el_YJ5a3WPxjMC_an_Si9Gfqgjf;animation-name: kf_el_YJ5a3WPxjMC_an_Si9Gfqgjf;-webkit-animation-timing-function: cubic-bezier(0, 0, 1, 1);animation-timing-function: cubic-bezier(0, 0, 1, 1);}#el_aKeFgvjHjm7_an_mHKW3L_bz{-webkit-animation-fill-mode: backwards;animation-fill-mode: backwards;-webkit-transform: translate(268px, 55px) translate(-268px, -55px) translate(0px, 100px);transform: translate(268px, 55px) translate(-268px, -55px) translate(0px, 100px);-webkit-animation-name: kf_el_aKeFgvjHjm7_an_mHKW3L_bz;animation-name: kf_el_aKeFgvjHjm7_an_mHKW3L_bz;-webkit-animation-timing-function: cubic-bezier(0, 0, 1, 1);animation-timing-function: cubic-bezier(0, 0, 1, 1);}#el_lFKdPcX-k5r_an_CPqrMhMIA{-webkit-animation-fill-mode: backwards;animation-fill-mode: backwards;-webkit-transform: translate(23px, 122.75px) translate(-23px, -122.75px) translate(0px, 100px);transform: translate(23px, 122.75px) translate(-23px, -122.75px) translate(0px, 100px);-webkit-animation-name: kf_el_lFKdPcX-k5r_an_CPqrMhMIA;animation-name: kf_el_lFKdPcX-k5r_an_CPqrMhMIA;-webkit-animation-timing-function: cubic-bezier(0, 0, 1, 1);animation-timing-function: cubic-bezier(0, 0, 1, 1);}#el_-7JTgAqBYeu_an_npt7n6MT9{-webkit-animation-fill-mode: backwards;animation-fill-mode: backwards;-webkit-transform: translate(271px, 159.75px) translate(-271px, -159.75px) translate(0px, 100px);transform: translate(271px, 159.75px) translate(-271px, -159.75px) translate(0px, 100px);-webkit-animation-name: kf_el_-7JTgAqBYeu_an_npt7n6MT9;animation-name: kf_el_-7JTgAqBYeu_an_npt7n6MT9;-webkit-animation-timing-function: cubic-bezier(0, 0, 1, 1);animation-timing-function: cubic-bezier(0, 0, 1, 1);}#el_9qt0qxnjcNH_an_ZVgEutWm3{-webkit-transform: translate(90px, 72px) translate(-90px, -72px) translate(-3px, 0px);transform: translate(90px, 72px) translate(-90px, -72px) translate(-3px, 0px);}#el_qM3p9EG9Swb_an_c7YRt3vFL{-webkit-transform: translate(251px, 72px) translate(-251px, -72px) translate(-3px, 0px);transform: translate(251px, 72px) translate(-251px, -72px) translate(-3px, 0px);}#el_29-6Rm9-h14_an_TfVe3fIGE{-webkit-transform: translate(170px, 114.20874786376953px) translate(-170px, -114.20874786376953px) translate(-3px, 0px);transform: translate(170px, 114.20874786376953px) translate(-170px, -114.20874786376953px) translate(-3px, 0px);}#el_L2NejKUzGrT_an_dZNrzj4r3{-webkit-animation-fill-mode: backwards;animation-fill-mode: backwards;-webkit-transform: translate(92px, 72px) scale(1, 1) translate(-92px, -72px);transform: translate(92px, 72px) scale(1, 1) translate(-92px, -72px);-webkit-animation-name: kf_el_L2NejKUzGrT_an_dZNrzj4r3;animation-name: kf_el_L2NejKUzGrT_an_dZNrzj4r3;-webkit-animation-timing-function: cubic-bezier(0, 0, 1, 1);animation-timing-function: cubic-bezier(0, 0, 1, 1);}#el_29-6Rm9-h14_an_PRhoaUTpG{-webkit-animation-fill-mode: backwards;animation-fill-mode: backwards;-webkit-transform: translate(170px, 114.20874786376953px) scale(1, 1) translate(-170px, -114.20874786376953px);transform: translate(170px, 114.20874786376953px) scale(1, 1) translate(-170px, -114.20874786376953px);-webkit-animation-name: kf_el_29-6Rm9-h14_an_PRhoaUTpG;animation-name: kf_el_29-6Rm9-h14_an_PRhoaUTpG;-webkit-animation-timing-function: cubic-bezier(0, 0, 1, 1);animation-timing-function: cubic-bezier(0, 0, 1, 1);}#el_N2kVk6iTbn7_an_V7-aPp5JY{-webkit-animation-fill-mode: backwards;animation-fill-mode: backwards;-webkit-transform: translate(171.5px, 171.5px) scale(1, 1) translate(-171.5px, -171.5px);transform: translate(171.5px, 171.5px) scale(1, 1) translate(-171.5px, -171.5px);-webkit-animation-name: kf_el_N2kVk6iTbn7_an_V7-aPp5JY;animation-name: kf_el_N2kVk6iTbn7_an_V7-aPp5JY;-webkit-animation-timing-function: cubic-bezier(0, 0, 1, 1);animation-timing-function: cubic-bezier(0, 0, 1, 1);}#el_qM3p9EG9Swb_an_thzEP7jHp{-webkit-animation-fill-mode: backwards;animation-fill-mode: backwards;-webkit-transform: translate(251px, 72px) scale(1, 1) translate(-251px, -72px);transform: translate(251px, 72px) scale(1, 1) translate(-251px, -72px);-webkit-animation-name: kf_el_qM3p9EG9Swb_an_thzEP7jHp;animation-name: kf_el_qM3p9EG9Swb_an_thzEP7jHp;-webkit-animation-timing-function: cubic-bezier(0, 0, 1, 1);animation-timing-function: cubic-bezier(0, 0, 1, 1);}#el_1t-8WPKGrjc_an_p13tskBpN{-webkit-animation-fill-mode: backwards;animation-fill-mode: backwards;-webkit-transform: translate(170px, 29px) scale(1, 1) translate(-170px, -29px);transform: translate(170px, 29px) scale(1, 1) translate(-170px, -29px);-webkit-animation-name: kf_el_1t-8WPKGrjc_an_p13tskBpN;animation-name: kf_el_1t-8WPKGrjc_an_p13tskBpN;-webkit-animation-timing-function: cubic-bezier(0, 0, 1, 1);animation-timing-function: cubic-bezier(0, 0, 1, 1);}#el_9qt0qxnjcNH_an_fB9MnHj9P{-webkit-animation-fill-mode: backwards;animation-fill-mode: backwards;-webkit-transform: translate(90px, 72px) scale(1.5, 1) translate(-90px, -72px);transform: translate(90px, 72px) scale(1.5, 1) translate(-90px, -72px);-webkit-animation-name: kf_el_9qt0qxnjcNH_an_fB9MnHj9P;animation-name: kf_el_9qt0qxnjcNH_an_fB9MnHj9P;-webkit-animation-timing-function: cubic-bezier(0, 0, 1, 1);animation-timing-function: cubic-bezier(0, 0, 1, 1);}#el_fC-c0s6K18_an_K_cVGISyp{-webkit-animation-fill-mode: backwards;animation-fill-mode: backwards;-webkit-transform: translate(123px, 65px) translate(-123px, -65px) translate(0px, 15px);transform: translate(123px, 65px) translate(-123px, -65px) translate(0px, 15px);-webkit-animation-name: kf_el_fC-c0s6K18_an_K_cVGISyp;animation-name: kf_el_fC-c0s6K18_an_K_cVGISyp;-webkit-animation-timing-function: cubic-bezier(0, 0, 1, 1);animation-timing-function: cubic-bezier(0, 0, 1, 1);}</style>
    <!-- Generator: Sketch 55 (78076) - https://sketchapp.com -->
    <title>编组</title>
    <desc>Created with Sketch.</desc>
    <defs>
        <ellipse id="path-1" cx="171.5" cy="171.5" rx="138.5" ry="71.5"/>
        <filter x="-6.7%" y="-12.9%" width="113.4%" height="125.9%" filterUnits="objectBoundingBox" id="filter-2">
            <feMorphology radius="16" operator="erode" in="SourceAlpha" result="shadowSpreadInner1"/>
            <feGaussianBlur stdDeviation="10" in="shadowSpreadInner1" result="shadowBlurInner1"/>
            <feOffset dx="0" dy="0" in="shadowBlurInner1" result="shadowOffsetInner1"/>
            <feComposite in="shadowOffsetInner1" in2="SourceAlpha" operator="arithmetic" k2="-1" k3="1" result="shadowInnerInner1"/>
            <feColorMatrix values="0 0 0 0 0.258823529   0 0 0 0 0.568627451   0 0 0 0 0.968627451  0 0 0 1 0" type="matrix" in="shadowInnerInner1"/>
        </filter>
        <ellipse id="path-3" cx="173.5" cy="181.5" rx="158.5" ry="81.5"/>
        <filter x="-3.5%" y="-6.7%" width="106.9%" height="113.5%" filterUnits="objectBoundingBox" id="filter-4">
            <feMorphology radius="8" operator="erode" in="SourceAlpha" result="shadowSpreadInner1"/>
            <feGaussianBlur stdDeviation="6" in="shadowSpreadInner1" result="shadowBlurInner1"/>
            <feOffset dx="0" dy="1" in="shadowBlurInner1" result="shadowOffsetInner1"/>
            <feComposite in="shadowOffsetInner1" in2="SourceAlpha" operator="arithmetic" k2="-1" k3="1" result="shadowInnerInner1"/>
            <feColorMatrix values="0 0 0 0 0.258823529   0 0 0 0 0.568627451   0 0 0 0 0.968627451  0 0 0 1 0" type="matrix" in="shadowInnerInner1"/>
        </filter>
        <path d="M218.042788,89.5014521 L219,89 L219,147.652499 L171,173 L123,147.538768 L123,89 L123.955063,89.5025713 L171,65 L218.042788,89.5014521 Z" id="path-5"/>
        <mask id="mask-6" maskContentUnits="userSpaceOnUse" maskUnits="objectBoundingBox" x="0" y="0" width="96" height="108" fill="white">
            <use xlink:href="#path-5"/>
        </mask>
        <linearGradient x1="50%" y1="0%" x2="50%" y2="100%" id="linearGradient-7">
            <stop stop-color="#77C4FC" stop-opacity="0" offset="0%"/>
            <stop stop-color="#4291F7" offset="100%"/>
        </linearGradient>
        <linearGradient x1="50%" y1="0%" x2="50%" y2="100%" id="linearGradient-8">
            <stop stop-color="#42CFF7" offset="0%"/>
            <stop stop-color="#42CFF7" stop-opacity="0" offset="100%"/>
        </linearGradient>
        <linearGradient x1="50%" y1="0%" x2="50%" y2="100%" id="linearGradient-9">
            <stop stop-color="#42CFF7" offset="0%"/>
            <stop stop-color="#42CFF7" stop-opacity="0" offset="100%"/>
        </linearGradient>
    </defs>
    <g id="el_rnPiU1q-p6" fill-rule="evenodd">
        <g id="el_e__EBhOZzA">
            <g id="el_CrusjYre3K">
                <g id="el_eZqyktq3dL">
                    <use filter="url(#filter-2)" xlink:href="#path-1" id="el_lsuzwFBvsy"/>
                    <use xlink:href="#path-1" id="el_ytEYKrHv8p"/>
                </g>
                <g id="el_vFQLJcPocn">
                    <use filter="url(#filter-4)" xlink:href="#path-3" id="el_NK4Z_SJaVq"/>
                    <use xlink:href="#path-3" id="el_0_pLYx6jjD"/>
                </g>
                <ellipse id="el_Ppv8sRxFhg" cx="173.5" cy="188.5" rx="173.5" ry="89.5"/>
                <g id="el_fC-c0s6K18_an_K_cVGISyp" data-animator-group="true" data-animator-type="0"><use id="el_fC-c0s6K18" mask="url(#mask-6)" stroke-dasharray="2,2" xlink:href="#path-5"/></g>
                <polygon id="el_mAFSYT25ao" points="90 71.5 170.5 29 251 71.5 170.5 114"/>
                <polygon id="el_ch3DVsRGu7" points="90 72 90 170.261504 170 213 170 114.398131"/>
                <polygon id="el_lmNZY2j5t-" points="170 72 170 170.45241 251 213 251 114.208745"/>
                <path d="M91.0709437,71.5 L170.5,113.434595 L249.929056,71.5 L170.5,29.5654051 L91.0709437,71.5 Z" id="el_BnrXleq-yP"/>
                <polygon id="el_vvgpmchjSZG" points="90 72 90 170.261504 170 213 170 114.398131"/>
                <polygon id="el_2ERIcFTqhgb" points="170 72 170 170.45241 251 213 251 114.208745"/>
                <circle id="el_M2PR8wdc6FN" cx="48" cy="48" r="12"/>
                <circle id="el_GcpIQ91wMhr" cx="48" cy="48" r="5"/>
                <circle id="el_OOZ8E21f8lA" cx="170" cy="114" r="5"/>
                <circle id="el_VF0F5EmQEtD" cx="170" cy="29" r="5"/>
                <circle id="el_5bMM-pmdlfd" cx="170" cy="212" r="5"/>
                <circle id="el_ut8PxMFQHFR" cx="90" cy="169" r="5"/>
                <circle id="el_ez1mDRP6zpX" cx="251" cy="169" r="5"/>
                <circle id="el_NvDhlKXjAea" cx="251" cy="71" r="5"/>
                <path d="M49.5,49.5 L92,72" id="el_NyVFHOcO9_j"/>
                <circle id="el_VG9LSk49Jjg" cx="90" cy="71" r="5"/>
                <g id="el_L2NejKUzGrT_an_dZNrzj4r3" data-animator-group="true" data-animator-type="2"><path d="M92,72 L170,114" id="el_L2NejKUzGrT"/></g>
                <g id="el_29-6Rm9-h14_an_PRhoaUTpG" data-animator-group="true" data-animator-type="2"><path d="M170,114.208745 L170,211.125023" id="el_29-6Rm9-h14"/></g>
                <g id="el_N2kVk6iTbn7_an_V7-aPp5JY" data-animator-group="true" data-animator-type="2"><path d="M171.5,212 L248.594762,171.5" id="el_N2kVk6iTbn7"/></g>
                <g id="el_1t-8WPKGrjc_an_p13tskBpN" data-animator-group="true" data-animator-type="2"><path d="M248.594762,71 L170,29" id="el_1t-8WPKGrjc"/></g>
                <g id="el_9qt0qxnjcNH_an_fB9MnHj9P" data-animator-group="true" data-animator-type="2"><path d="M90,72 L90,169" id="el_9qt0qxnjcNH"/></g>
                <g id="el_qM3p9EG9Swb_an_thzEP7jHp" data-animator-group="true" data-animator-type="2"><path d="M251,72 L251,169" id="el_qM3p9EG9Swb"/></g>
                <path d="M309.970127,173 C308.423531,211.795843 247.020541,243 171.5,243 C95.9794593,243 34.5764687,211.795843 33.0298733,173 L33,173 L33,0 L310,0 L310,173 L309.970127,173 Z" id="el_OSbob5krXxz"/>
                <g id="el_2Iruf8NJ6Bh_an_vTrBWBuLP" data-animator-group="true" data-animator-type="0"><circle id="el_2Iruf8NJ6Bh" cx="24" cy="117" r="4"/></g>
                <g id="el_YJ5a3WPxjMC_an_Si9Gfqgjf" data-animator-group="true" data-animator-type="0"><circle id="el_YJ5a3WPxjMC" cx="272" cy="154" r="4"/></g>
                <g id="el_aKeFgvjHjm7_an_mHKW3L_bz" data-animator-group="true" data-animator-type="0"><circle id="el_aKeFgvjHjm7" cx="272" cy="59" r="4"/></g>
                <g id="el_lFKdPcX-k5r_an_CPqrMhMIA" data-animator-group="true" data-animator-type="0"><path d="M23,123.75 L23,124.75 C23,125.302285 23.4477153,125.75 24,125.75 C24.5522847,125.75 25,125.302285 25,124.75 L25,123.75 C25,123.197715 24.5522847,122.75 24,122.75 C23.4477153,122.75 23,123.197715 23,123.75 Z M23,127.75 L23,128.75 C23,129.302285 23.4477153,129.75 24,129.75 C24.5522847,129.75 25,129.302285 25,128.75 L25,127.75 C25,127.197715 24.5522847,126.75 24,126.75 C23.4477153,126.75 23,127.197715 23,127.75 Z M23,131.75 L23,132.75 C23,133.302285 23.4477153,133.75 24,133.75 C24.5522847,133.75 25,133.302285 25,132.75 L25,131.75 C25,131.197715 24.5522847,130.75 24,130.75 C23.4477153,130.75 23,131.197715 23,131.75 Z M23,135.75 L23,136.75 C23,137.302285 23.4477153,137.75 24,137.75 C24.5522847,137.75 25,137.302285 25,136.75 L25,135.75 C25,135.197715 24.5522847,134.75 24,134.75 C23.4477153,134.75 23,135.197715 23,135.75 Z M23,139.75 L23,140.75 C23,141.302285 23.4477153,141.75 24,141.75 C24.5522847,141.75 25,141.302285 25,140.75 L25,139.75 C25,139.197715 24.5522847,138.75 24,138.75 C23.4477153,138.75 23,139.197715 23,139.75 Z M23,143.75 L23,144.75 C23,145.302285 23.4477153,145.75 24,145.75 C24.5522847,145.75 25,145.302285 25,144.75 L25,143.75 C25,143.197715 24.5522847,142.75 24,142.75 C23.4477153,142.75 23,143.197715 23,143.75 Z M23,147.75 L23,148.75 C23,149.302285 23.4477153,149.75 24,149.75 C24.5522847,149.75 25,149.302285 25,148.75 L25,147.75 C25,147.197715 24.5522847,146.75 24,146.75 C23.4477153,146.75 23,147.197715 23,147.75 Z M23,151.75 L23,152.75 C23,153.302285 23.4477153,153.75 24,153.75 C24.5522847,153.75 25,153.302285 25,152.75 L25,151.75 C25,151.197715 24.5522847,150.75 24,150.75 C23.4477153,150.75 23,151.197715 23,151.75 Z M23,155.75 L23,156.75 C23,157.302285 23.4477153,157.75 24,157.75 C24.5522847,157.75 25,157.302285 25,156.75 L25,155.75 C25,155.197715 24.5522847,154.75 24,154.75 C23.4477153,154.75 23,155.197715 23,155.75 Z M23,159.75 L23,160.75 C23,161.302285 23.4477153,161.75 24,161.75 C24.5522847,161.75 25,161.302285 25,160.75 L25,159.75 C25,159.197715 24.5522847,158.75 24,158.75 C23.4477153,158.75 23,159.197715 23,159.75 Z M23,163.75 L23,164.75 C23,165.302285 23.4477153,165.75 24,165.75 C24.5522847,165.75 25,165.302285 25,164.75 L25,163.75 C25,163.197715 24.5522847,162.75 24,162.75 C23.4477153,162.75 23,163.197715 23,163.75 Z M23,167.75 L23,168.75 C23,169.302285 23.4477153,169.75 24,169.75 C24.5522847,169.75 25,169.302285 25,168.75 L25,167.75 C25,167.197715 24.5522847,166.75 24,166.75 C23.4477153,166.75 23,167.197715 23,167.75 Z M23,171.75 L23,172.75 C23,173.302285 23.4477153,173.75 24,173.75 C24.5522847,173.75 25,173.302285 25,172.75 L25,171.75 C25,171.197715 24.5522847,170.75 24,170.75 C23.4477153,170.75 23,171.197715 23,171.75 Z" id="el_lFKdPcX-k5r" fill-rule="nonzero"/></g>
                <g id="el_-7JTgAqBYeu_an_npt7n6MT9" data-animator-group="true" data-animator-type="0"><path d="M271,160.75 L271,161.75 C271,162.302285 271.447715,162.75 272,162.75 C272.552285,162.75 273,162.302285 273,161.75 L273,160.75 C273,160.197715 272.552285,159.75 272,159.75 C271.447715,159.75 271,160.197715 271,160.75 Z M271,164.75 L271,165.75 C271,166.302285 271.447715,166.75 272,166.75 C272.552285,166.75 273,166.302285 273,165.75 L273,164.75 C273,164.197715 272.552285,163.75 272,163.75 C271.447715,163.75 271,164.197715 271,164.75 Z M271,168.75 L271,169.75 C271,170.302285 271.447715,170.75 272,170.75 C272.552285,170.75 273,170.302285 273,169.75 L273,168.75 C273,168.197715 272.552285,167.75 272,167.75 C271.447715,167.75 271,168.197715 271,168.75 Z M271,172.75 L271,173.75 C271,174.302285 271.447715,174.75 272,174.75 C272.552285,174.75 273,174.302285 273,173.75 L273,172.75 C273,172.197715 272.552285,171.75 272,171.75 C271.447715,171.75 271,172.197715 271,172.75 Z M271,176.75 L271,177.75 C271,178.302285 271.447715,178.75 272,178.75 C272.552285,178.75 273,178.302285 273,177.75 L273,176.75 C273,176.197715 272.552285,175.75 272,175.75 C271.447715,175.75 271,176.197715 271,176.75 Z M271,180.75 L271,181.75 C271,182.302285 271.447715,182.75 272,182.75 C272.552285,182.75 273,182.302285 273,181.75 L273,180.75 C273,180.197715 272.552285,179.75 272,179.75 C271.447715,179.75 271,180.197715 271,180.75 Z M271,184.75 L271,185.75 C271,186.302285 271.447715,186.75 272,186.75 C272.552285,186.75 273,186.302285 273,185.75 L273,184.75 C273,184.197715 272.552285,183.75 272,183.75 C271.447715,183.75 271,184.197715 271,184.75 Z M271,188.75 L271,189.75 C271,190.302285 271.447715,190.75 272,190.75 C272.552285,190.75 273,190.302285 273,189.75 L273,188.75 C273,188.197715 272.552285,187.75 272,187.75 C271.447715,187.75 271,188.197715 271,188.75 Z M271,192.75 L271,193.75 C271,194.302285 271.447715,194.75 272,194.75 C272.552285,194.75 273,194.302285 273,193.75 L273,192.75 C273,192.197715 272.552285,191.75 272,191.75 C271.447715,191.75 271,192.197715 271,192.75 Z M271,196.75 L271,197.75 C271,198.302285 271.447715,198.75 272,198.75 C272.552285,198.75 273,198.302285 273,197.75 L273,196.75 C273,196.197715 272.552285,195.75 272,195.75 C271.447715,195.75 271,196.197715 271,196.75 Z M271,200.75 L271,201.75 C271,202.302285 271.447715,202.75 272,202.75 C272.552285,202.75 273,202.302285 273,201.75 L273,200.75 C273,200.197715 272.552285,199.75 272,199.75 C271.447715,199.75 271,200.197715 271,200.75 Z M271,204.75 L271,205.75 C271,206.302285 271.447715,206.75 272,206.75 C272.552285,206.75 273,206.302285 273,205.75 L273,204.75 C273,204.197715 272.552285,203.75 272,203.75 C271.447715,203.75 271,204.197715 271,204.75 Z M271,208.75 L271,209.75 C271,210.302285 271.447715,210.75 272,210.75 C272.552285,210.75 273,210.302285 273,209.75 L273,208.75 C273,208.197715 272.552285,207.75 272,207.75 C271.447715,207.75 271,208.197715 271,208.75 Z" id="el_-7JTgAqBYeu" fill-rule="nonzero"/></g>
                <g id="el_toLX3i8CBog_an_kZZxKTz1f" data-animator-group="true" data-animator-type="0"><path d="M271,65.75 L271,66.75 C271,67.3022847 271.447715,67.75 272,67.75 C272.552285,67.75 273,67.3022847 273,66.75 L273,65.75 C273,65.1977153 272.552285,64.75 272,64.75 C271.447715,64.75 271,65.1977153 271,65.75 Z M271,69.75 L271,70.75 C271,71.3022847 271.447715,71.75 272,71.75 C272.552285,71.75 273,71.3022847 273,70.75 L273,69.75 C273,69.1977153 272.552285,68.75 272,68.75 C271.447715,68.75 271,69.1977153 271,69.75 Z M271,73.75 L271,74.75 C271,75.3022847 271.447715,75.75 272,75.75 C272.552285,75.75 273,75.3022847 273,74.75 L273,73.75 C273,73.1977153 272.552285,72.75 272,72.75 C271.447715,72.75 271,73.1977153 271,73.75 Z M271,77.75 L271,78.75 C271,79.3022847 271.447715,79.75 272,79.75 C272.552285,79.75 273,79.3022847 273,78.75 L273,77.75 C273,77.1977153 272.552285,76.75 272,76.75 C271.447715,76.75 271,77.1977153 271,77.75 Z M271,81.75 L271,82.75 C271,83.3022847 271.447715,83.75 272,83.75 C272.552285,83.75 273,83.3022847 273,82.75 L273,81.75 C273,81.1977153 272.552285,80.75 272,80.75 C271.447715,80.75 271,81.1977153 271,81.75 Z M271,85.75 L271,86.75 C271,87.3022847 271.447715,87.75 272,87.75 C272.552285,87.75 273,87.3022847 273,86.75 L273,85.75 C273,85.1977153 272.552285,84.75 272,84.75 C271.447715,84.75 271,85.1977153 271,85.75 Z M271,89.75 L271,90.75 C271,91.3022847 271.447715,91.75 272,91.75 C272.552285,91.75 273,91.3022847 273,90.75 L273,89.75 C273,89.1977153 272.552285,88.75 272,88.75 C271.447715,88.75 271,89.1977153 271,89.75 Z M271,93.75 L271,94.75 C271,95.3022847 271.447715,95.75 272,95.75 C272.552285,95.75 273,95.3022847 273,94.75 L273,93.75 C273,93.1977153 272.552285,92.75 272,92.75 C271.447715,92.75 271,93.1977153 271,93.75 Z M271,97.75 L271,98.75 C271,99.3022847 271.447715,99.75 272,99.75 C272.552285,99.75 273,99.3022847 273,98.75 L273,97.75 C273,97.1977153 272.552285,96.75 272,96.75 C271.447715,96.75 271,97.1977153 271,97.75 Z M271,101.75 L271,102.75 C271,103.302285 271.447715,103.75 272,103.75 C272.552285,103.75 273,103.302285 273,102.75 L273,101.75 C273,101.197715 272.552285,100.75 272,100.75 C271.447715,100.75 271,101.197715 271,101.75 Z" id="el_toLX3i8CBog" fill-rule="nonzero"/></g>
            </g>
        </g>
    </g>
</svg>